<svg width="26" height="25" viewBox="0 0 26 25" fill="none" xmlns="http://www.w3.org/2000/svg">
<g clip-path="url(#clip0_184_291)">
<path d="M12.5841 11.5405C14.1696 11.5405 15.5423 10.9718 16.6642 9.84993C17.7857 8.72819 18.3546 7.35569 18.3546 5.77005C18.3546 4.18497 17.7859 2.81228 16.664 1.69018C15.5421 0.568634 14.1694 0 12.5841 0C10.9985 0 9.626 0.568634 8.50427 1.69037C7.38254 2.8121 6.81372 4.18479 6.81372 5.77005C6.81372 7.35569 7.38254 8.72838 8.50427 9.85011C9.62637 10.9717 10.9991 11.5405 12.5841 11.5405ZM9.49714 2.68305C10.3579 1.82233 11.3675 1.40395 12.5841 1.40395C13.8006 1.40395 14.8104 1.82233 15.6713 2.68305C16.532 3.54396 16.9506 4.55382 16.9506 5.77005C16.9506 6.98665 16.532 7.99634 15.6713 8.85724C14.8104 9.71814 13.8006 10.1365 12.5841 10.1365C11.3679 10.1365 10.3582 9.71796 9.49714 8.85724C8.63624 7.99652 8.21767 6.98665 8.21767 5.77005C8.21767 4.55382 8.63624 3.54396 9.49714 2.68305Z" fill="white"/>
<path d="M22.2356 18.1152C22.2047 17.6693 22.1422 17.1829 22.0502 16.6692C21.9573 16.1517 21.8377 15.6625 21.6945 15.2154C21.5464 14.7532 21.3455 14.2968 21.0967 13.8595C20.8388 13.4055 20.5357 13.0102 20.1956 12.685C19.84 12.3447 19.4045 12.0711 18.901 11.8715C18.3992 11.673 17.8431 11.5724 17.2483 11.5724C17.0147 11.5724 16.7887 11.6683 16.3524 11.9524C16.0839 12.1275 15.7698 12.33 15.4192 12.554C15.1194 12.745 14.7133 12.924 14.2117 13.086C13.7223 13.2444 13.2254 13.3247 12.7348 13.3247C12.2446 13.3247 11.7477 13.2444 11.2579 13.086C10.7568 12.9242 10.3506 12.7452 10.0513 12.5542C9.70404 12.3323 9.38977 12.1297 9.11722 11.9522C8.68126 11.6681 8.45534 11.5723 8.22173 11.5723C7.62671 11.5723 7.0708 11.673 6.56919 11.8717C6.06601 12.0709 5.63039 12.3445 5.27439 12.6851C4.93428 13.0106 4.63119 13.4057 4.37349 13.8595C4.12504 14.2968 3.9239 14.753 3.77585 15.2155C3.63285 15.6627 3.51326 16.1517 3.42037 16.6692C3.32819 17.1822 3.26586 17.6688 3.23495 18.1157C3.20457 18.5527 3.18921 19.0076 3.18921 19.4671C3.18921 20.6617 3.56895 21.6287 4.31779 22.342C5.05737 23.0458 6.0358 23.4026 7.22601 23.4026H18.245C19.4349 23.4026 20.4133 23.0458 21.1531 22.342C21.9021 21.6293 22.2818 20.6618 22.2818 19.4669C22.2817 19.0058 22.2661 18.551 22.2356 18.1152ZM20.2284 21.3703C19.7397 21.8355 19.0909 22.0616 18.2449 22.0616H7.22601C6.37975 22.0616 5.73096 21.8355 5.24244 21.3705C4.76318 20.9143 4.53027 20.2915 4.53027 19.4671C4.53027 19.0383 4.54441 18.6149 4.5727 18.2084C4.60028 17.8097 4.65668 17.3716 4.74031 16.9061C4.82289 16.4464 4.928 16.015 5.05301 15.6244C5.17295 15.2499 5.33655 14.8791 5.53943 14.5219C5.73305 14.1814 5.95584 13.8893 6.20167 13.654C6.43161 13.4338 6.72144 13.2536 7.06294 13.1185C7.37878 12.9935 7.73374 12.925 8.11907 12.9147C8.16603 12.9397 8.24966 12.9874 8.38515 13.0757C8.66083 13.2554 8.9786 13.4603 9.32988 13.6847C9.72586 13.9372 10.236 14.1652 10.8455 14.3619C11.4687 14.5634 12.1042 14.6657 12.735 14.6657C13.3658 14.6657 14.0015 14.5634 14.6243 14.3621C15.2343 14.165 15.7443 13.9372 16.1408 13.6843C16.5003 13.4546 16.8092 13.2555 17.0849 13.0757C17.2203 12.9875 17.304 12.9397 17.3509 12.9147C17.7364 12.925 18.0914 12.9935 18.4074 13.1185C18.7487 13.2536 19.0386 13.434 19.2685 13.654C19.5143 13.8891 19.7371 14.1812 19.9307 14.522C20.1338 14.8791 20.2976 15.2501 20.4173 15.6243C20.5425 16.0154 20.6478 16.4466 20.7302 16.906C20.8137 17.3723 20.8702 17.8105 20.8978 18.2086V18.209C20.9263 18.6138 20.9406 19.0371 20.9408 19.4671C20.9406 20.2917 20.7077 20.9143 20.2284 21.3703Z" fill="white"/>
</g>
<defs>
<clipPath id="clip0_184_291">
<rect width="20.3503" height="24.4204" fill="white" transform="translate(2.74194)"/>
</clipPath>
</defs>
</svg>
