<svg width="39" height="39" viewBox="0 0 39 39" fill="none" xmlns="http://www.w3.org/2000/svg">
<path d="M21.3281 31.3625L32.0531 20.6375C32.2156 20.475 32.331 20.299 32.3992 20.1094C32.4675 19.9198 32.5011 19.7167 32.5 19.5C32.5 19.2834 32.4658 19.0802 32.3976 18.8907C32.3293 18.7011 32.2145 18.525 32.0531 18.3625L21.3281 7.63754C21.0302 7.33962 20.6575 7.18416 20.2101 7.17116C19.7627 7.15816 19.377 7.31362 19.0531 7.63754C18.7281 7.93545 18.5586 8.30812 18.5445 8.75554C18.5304 9.20295 18.6864 9.58862 19.0125 9.91254L26.975 17.875H8.8156C8.35518 17.875 7.96897 18.031 7.65697 18.343C7.34497 18.655 7.18951 19.0407 7.1906 19.5C7.1906 19.9605 7.34606 20.3467 7.65697 20.6587C7.96789 20.9707 8.3541 21.1261 8.8156 21.125H26.975L19.0125 29.0875C18.7146 29.3855 18.5586 29.7646 18.5445 30.225C18.5304 30.6855 18.6864 31.0646 19.0125 31.3625C19.3104 31.6875 19.6896 31.85 20.15 31.85C20.6104 31.85 21.0031 31.6875 21.3281 31.3625Z" fill="white"/>
</svg>
