<svg width="21" height="21" viewBox="0 0 21 21" fill="none" xmlns="http://www.w3.org/2000/svg">
<path d="M12.7378 13.4588L14.1413 12.0553C14.3303 11.8686 14.5695 11.7408 14.8297 11.6874C15.09 11.634 15.3602 11.6573 15.6074 11.7545L17.3179 12.4375C17.5678 12.5389 17.7821 12.712 17.9337 12.935C18.0854 13.158 18.1676 13.4209 18.1701 13.6906V16.8234C18.1686 17.0069 18.13 17.1881 18.0567 17.3563C17.9833 17.5244 17.8767 17.676 17.7433 17.8018C17.6098 17.9277 17.4522 18.0252 17.2801 18.0886C17.1079 18.152 16.9247 18.1798 16.7415 18.1705C4.75536 17.4249 2.33683 7.27461 1.87944 3.38992C1.85821 3.19916 1.87761 3.00606 1.93636 2.82333C1.99512 2.6406 2.09189 2.47238 2.22033 2.32974C2.34877 2.1871 2.50595 2.07327 2.68154 1.99574C2.85712 1.91821 3.04714 1.87873 3.23908 1.87991H6.26538C6.53543 1.88071 6.79907 1.96228 7.02239 2.11414C7.2457 2.26599 7.41848 2.48118 7.5185 2.73203L8.20145 4.44255C8.30186 4.68883 8.32748 4.95924 8.27511 5.21999C8.22273 5.48075 8.09469 5.72029 7.90697 5.90871L6.50347 7.3122C6.50347 7.3122 7.31174 12.7821 12.7378 13.4588Z" fill="white"/>
</svg>
