<svg width="62" height="420" viewBox="0 0 62 420" fill="none" xmlns="http://www.w3.org/2000/svg">
<path opacity="0.8" d="M3.00001 364.794L3.00001 363.794L2.00001 363.794L2.00001 364.794L3.00001 364.794ZM59 364.794L60 364.794L60 363.794L59 363.794L59 364.794ZM59 383.354L59 384.354L60 384.354L60 383.354L59 383.354ZM17.64 383.354L17.64 382.354L16.64 382.354L16.64 383.354L17.64 383.354ZM17.64 400.394L16.64 400.394L16.64 401.394L17.64 401.394L17.64 400.394ZM59 400.394L60 400.394L60 399.394L59 399.394L59 400.394ZM59 418.954L59 419.954L60 419.954L60 418.954L59 418.954ZM3.00001 418.954L2.00001 418.954L2.00001 419.954L3.00001 419.954L3.00001 418.954ZM3.00001 365.794L59 365.794L59 363.794L3.00001 363.794L3.00001 365.794ZM58 364.794L58 383.354L60 383.354L60 364.794L58 364.794ZM59 382.354L17.64 382.354L17.64 384.354L59 384.354L59 382.354ZM16.64 383.354L16.64 400.394L18.64 400.394L18.64 383.354L16.64 383.354ZM17.64 401.394L59 401.394L59 399.394L17.64 399.394L17.64 401.394ZM58 400.394L58 418.954L60 418.954L60 400.394L58 400.394ZM59 417.954L3.00001 417.954L3.00001 419.954L59 419.954L59 417.954ZM4.00001 418.954L4.00001 364.794L2.00001 364.794L2.00001 418.954L4.00001 418.954ZM3.00001 284.252L3.00001 283.252L2.00001 283.252L2.00001 284.252L3.00001 284.252ZM59 284.252L60 284.252L60 283.252L59 283.252L59 284.252ZM59 302.812L59 303.812L60 303.812L60 302.812L59 302.812ZM17.64 302.812L17.64 301.812L16.64 301.812L16.64 302.812L17.64 302.812ZM17.64 315.612L16.64 315.612L16.64 316.587L17.6153 316.611L17.64 315.612ZM24.12 315.772L24.1467 314.772L24.1447 314.772L24.12 315.772ZM43.8 317.692L44.004 316.713L43.8 317.692ZM55.8 323.292L56.4863 322.564L56.4794 322.558L55.8 323.292ZM59 342.732L58.9366 343.73L59.7719 343.783L59.9712 342.97L59 342.732ZM43.88 341.772L42.9056 341.547L42.6407 342.695L43.8166 342.77L43.88 341.772ZM41.72 335.212L41.1653 336.044L41.1751 336.05L41.185 336.056L41.72 335.212ZM35.32 333.052L35.4587 332.061L35.32 333.052ZM24.84 332.252L24.877 331.252L24.873 331.252L24.84 332.252ZM3.00001 331.532L2.00001 331.532L2.00001 332.499L2.96706 332.531L3.00001 331.532ZM3.00001 285.252L59 285.252L59 283.252L3.00001 283.252L3.00001 285.252ZM58 284.252L58 302.812L60 302.812L60 284.252L58 284.252ZM59 301.812L17.64 301.812L17.64 303.812L59 303.812L59 301.812ZM16.64 302.812L16.64 315.612L18.64 315.612L18.64 302.812L16.64 302.812ZM17.6153 316.611L24.0953 316.771L24.1447 314.772L17.6647 314.612L17.6153 316.611ZM24.0934 316.771C32.0615 316.984 38.5564 317.621 43.5961 318.671L44.004 316.713C38.8036 315.629 32.1785 314.986 24.1467 314.772L24.0934 316.771ZM43.5961 318.671C48.5956 319.712 52.4112 321.517 55.1206 324.025L56.4794 322.558C53.4289 319.733 49.2444 317.804 44.004 316.713L43.5961 318.671ZM55.1138 324.019C57.6883 326.448 59.04 329.966 59.04 334.732L61.04 334.732C61.04 329.577 59.5651 325.469 56.4862 322.564L55.1138 324.019ZM59.04 334.732C59.04 337.146 58.706 339.732 58.0288 342.493L59.9712 342.97C60.6807 340.077 61.04 337.33 61.04 334.732L59.04 334.732ZM59.0634 341.734L43.9434 340.774L43.8166 342.77L58.9366 343.73L59.0634 341.734ZM44.8544 341.996C45.031 341.231 45.12 340.463 45.12 339.692L43.12 339.692C43.12 340.307 43.049 340.925 42.9056 341.547L44.8544 341.996ZM45.12 339.692C45.12 337.393 44.1589 335.573 42.2551 334.367L41.185 336.056C42.4811 336.877 43.12 338.044 43.12 339.692L45.12 339.692ZM42.2747 334.38C40.51 333.203 38.2183 332.448 35.4587 332.061L35.1814 334.042C37.755 334.402 39.73 335.087 41.1653 336.044L42.2747 334.38ZM35.4587 332.061C32.7444 331.681 29.2134 331.413 24.877 331.252L24.803 333.251C29.1067 333.41 32.5623 333.675 35.1814 334.042L35.4587 332.061ZM24.873 331.252L3.03296 330.532L2.96706 332.531L24.8071 333.251L24.873 331.252ZM4.00001 331.532L4.00001 284.252L2.00001 284.252L2.00001 331.532L4.00001 331.532ZM15.96 178.6L16.4715 179.46L16.476 179.457L15.96 178.6ZM46.12 178.6L46.636 177.744L46.6315 177.741L46.12 178.6ZM56.52 189.64L55.6379 190.111L56.52 189.64ZM57.56 219.24L58.4724 219.65L58.4767 219.64L57.56 219.24ZM38.36 235.56L38.1203 234.589L37.36 234.777L37.36 235.56L38.36 235.56ZM38.36 239.8L37.36 239.8L37.36 240.8L38.36 240.8L38.36 239.8ZM59 239.8L60 239.8L60 238.8L59 238.8L59 239.8ZM59 258.36L59 259.36L60 259.36L60 258.36L59 258.36ZM3 258.36L2 258.36L2 259.36L3 259.36L3 258.36ZM3 239.8L3 238.8L2 238.8L2 239.8L3 239.8ZM22.84 239.8L22.84 240.8L23.84 240.8L23.84 239.8L22.84 239.8ZM22.84 235.4L23.84 235.4L23.84 234.641L23.1083 234.437L22.84 235.4ZM11.8 229.4L12.4683 228.656L12.462 228.651L11.8 229.4ZM4.36 219L3.44086 219.394L4.36 219ZM43.32 199.48L44.1708 198.955L44.1653 198.946L44.1596 198.937L43.32 199.48ZM38.44 195.24L37.9928 196.135L38.002 196.139L38.44 195.24ZM23.64 195.24L24.0691 196.144L24.0828 196.137L24.0963 196.13L23.64 195.24ZM18.76 199.48L19.5996 200.024L19.6053 200.015L19.6108 200.006L18.76 199.48ZM18.76 211.56L19.6108 211.035L19.6053 211.026L19.5996 211.017L18.76 211.56ZM23.64 215.88L23.1928 216.775L23.202 216.779L23.64 215.88ZM38.44 215.88L38.8691 216.784L38.8828 216.777L38.8963 216.77L38.44 215.88ZM43.32 211.56L44.1596 212.104L44.1653 212.095L44.1708 212.086L43.32 211.56ZM2.72 205.48C2.72 199.761 3.94055 194.645 6.36208 190.111L4.59793 189.169C2.00612 194.022 0.720003 199.466 0.720003 205.48L2.72 205.48ZM6.36208 190.111C8.78475 185.575 12.1514 182.031 16.4715 179.46L15.4485 177.741C10.8086 180.503 7.18859 184.319 4.59793 189.169L6.36208 190.111ZM16.476 179.457C20.734 176.892 25.5661 175.6 31 175.6L31 173.6C25.2339 173.6 20.0394 174.975 15.444 177.744L16.476 179.457ZM31 175.6C36.4338 175.6 41.2947 176.892 45.6085 179.46L46.6315 177.741C41.9853 174.975 36.7662 173.6 31 173.6L31 175.6ZM45.604 179.457C49.8714 182.028 53.2136 185.572 55.6379 190.111L57.4021 189.169C54.813 184.322 51.222 180.506 46.636 177.744L45.604 179.457ZM55.6379 190.111C58.0595 194.645 59.28 199.761 59.28 205.48L61.28 205.48C61.28 199.466 59.9939 194.022 57.4021 189.169L55.6379 190.111ZM59.28 205.48C59.28 210.371 58.3962 214.819 56.6433 218.841L58.4767 219.64C60.3505 215.341 61.28 210.617 61.28 205.48L59.28 205.48ZM56.6477 218.831C54.8385 222.863 52.3391 226.234 49.1502 228.96L50.4498 230.48C53.8742 227.553 56.5482 223.938 58.4724 219.65L56.6477 218.831ZM49.1502 228.96C45.9647 231.683 42.2926 233.559 38.1203 234.589L38.5997 236.531C43.0674 235.428 47.0219 233.411 50.4498 230.48L49.1502 228.96ZM37.36 235.56L37.36 239.8L39.36 239.8L39.36 235.56L37.36 235.56ZM38.36 240.8L59 240.8L59 238.8L38.36 238.8L38.36 240.8ZM58 239.8L58 258.36L60 258.36L60 239.8L58 239.8ZM59 257.36L3 257.36L3 259.36L59 259.36L59 257.36ZM4 258.36L4 239.8L2 239.8L2 258.36L4 258.36ZM3 240.8L22.84 240.8L22.84 238.8L3 238.8L3 240.8ZM23.84 239.8L23.84 235.4L21.84 235.4L21.84 239.8L23.84 239.8ZM23.1083 234.437C19.0382 233.304 15.4963 231.377 12.4683 228.656L11.1317 230.144C14.397 233.077 18.2152 235.15 22.5717 236.364L23.1083 234.437ZM12.462 228.651C9.37817 225.927 6.9836 222.583 5.27915 218.606L3.44086 219.394C5.25641 223.631 7.82183 227.221 11.138 230.15L12.462 228.651ZM5.27915 218.606C3.57753 214.636 2.72 210.265 2.72 205.48L0.720003 205.48C0.720003 210.509 1.62248 215.151 3.44086 219.394L5.27915 218.606ZM46 205.48C46 203.113 45.391 200.93 44.1708 198.955L42.4692 200.006C43.489 201.657 44 203.474 44 205.48L46 205.48ZM44.1596 198.937C42.8802 196.96 41.1096 195.429 38.878 194.341L38.002 196.139C39.9304 197.079 41.4131 198.374 42.4804 200.024L44.1596 198.937ZM38.8872 194.346C36.5916 193.198 33.9534 192.64 31 192.64L31 194.64C33.7 194.64 36.0218 195.149 37.9928 196.135L38.8872 194.346ZM31 192.64C28.0475 192.64 25.4315 193.198 23.1837 194.35L24.0963 196.13C26.0085 195.15 28.2992 194.64 31 194.64L31 192.64ZM23.2109 194.337C20.9231 195.424 19.1412 196.96 17.9092 198.955L19.6108 200.006C20.6188 198.374 22.0903 197.084 24.0691 196.144L23.2109 194.337ZM17.9204 198.937C16.641 200.914 16 203.103 16 205.48L18 205.48C18 203.484 18.5323 201.673 19.5996 200.024L17.9204 198.937ZM16 205.48C16 207.906 16.6384 210.122 17.9204 212.104L19.5996 211.017C18.535 209.372 18 207.535 18 205.48L16 205.48ZM17.9092 212.086C19.1382 214.076 20.9136 215.635 23.1928 216.775L24.0872 214.986C22.0997 213.992 20.6219 212.672 19.6108 211.035L17.9092 212.086ZM23.202 216.779C25.4454 217.872 28.0546 218.4 31 218.4L31 216.4C28.292 216.4 25.9947 215.915 24.078 214.981L23.202 216.779ZM31 218.4C33.9463 218.4 36.5778 217.872 38.8691 216.784L38.0109 214.977C36.0355 215.915 33.7071 216.4 31 216.4L31 218.4ZM38.8963 216.77C41.119 215.63 42.8833 214.076 44.1596 212.104L42.4804 211.017C41.4101 212.671 39.921 213.997 37.9837 214.99L38.8963 216.77ZM44.1708 212.086C45.3934 210.106 46 207.896 46 205.48L44 205.48C44 207.545 43.4866 209.388 42.4692 211.035L44.1708 212.086ZM56.6 139.575L57.4843 140.042L57.4884 140.034L56.6 139.575ZM46.2 150.775L46.7115 151.635L46.7235 151.627L46.2 150.775ZM15.88 150.775L15.361 151.63L15.364 151.632L15.88 150.775ZM5.48 139.575L6.36839 139.116L6.36427 139.108L5.48 139.575ZM4.6 109.015L5.51192 109.426L4.6 109.015ZM12.92 98.4553L13.666 97.7894L13.0488 97.0979L12.3125 97.6609L12.92 98.4553ZM23.56 110.375L24.1812 111.159L25.0121 110.5L24.306 109.709L23.56 110.375ZM20.84 132.135L21.5316 131.413L21.5239 131.406L20.84 132.135ZM41.24 132.135L41.924 132.865L41.9316 132.858L41.24 132.135ZM38.44 110.375L37.694 109.709L36.9879 110.5L37.8188 111.159L38.44 110.375ZM49.08 98.4553L49.6874 97.6609L48.9512 97.0979L48.334 97.7894L49.08 98.4553ZM57.4 109.015L56.4881 109.426L57.4 109.015ZM59.28 123.575C59.28 129.353 58.084 134.526 55.7116 139.116L57.4884 140.034C60.0227 135.131 61.28 129.638 61.28 123.575L59.28 123.575ZM55.7157 139.108C53.2898 143.702 49.9454 147.3 45.6765 149.923L46.7235 151.627C51.308 148.81 54.8969 144.942 57.4843 140.042L55.7157 139.108ZM45.6885 149.916C41.3762 152.483 36.489 153.775 31 153.775L31 155.775C36.8177 155.775 42.0638 154.401 46.7115 151.635L45.6885 149.916ZM31 153.775C25.5109 153.775 20.6525 152.483 16.396 149.919L15.364 151.632C19.9609 154.401 25.1825 155.775 31 155.775L31 153.775ZM16.399 149.921C12.0793 147.298 8.73901 143.703 6.36836 139.116L4.59164 140.034C7.12766 144.941 10.7207 148.813 15.361 151.63L16.399 149.921ZM6.36427 139.108C3.94119 134.52 2.72 129.35 2.72 123.575L0.72 123.575C0.72 129.641 2.00547 135.137 4.59573 140.042L6.36427 139.108ZM2.72 123.575C2.72 118.254 3.65867 113.544 5.51192 109.426L3.68808 108.605C1.70133 113.02 0.719999 118.017 0.72 123.575L2.72 123.575ZM5.51192 109.426C7.36561 105.306 10.0359 101.92 13.5274 99.2497L12.3125 97.6609C8.55075 100.538 5.67439 104.191 3.68808 108.605L5.51192 109.426ZM12.174 99.1212L22.814 111.041L24.306 109.709L13.666 97.7894L12.174 99.1212ZM22.9388 109.592C18.3767 113.208 16 117.558 16 122.615L18 122.615C18 118.286 19.9967 114.476 24.1812 111.159L22.9388 109.592ZM16 122.615C16 126.8 17.3683 130.251 20.1561 132.865L21.5239 131.406C19.1917 129.219 18 126.324 18 122.615L16 122.615ZM20.1484 132.858C22.8819 135.475 26.538 136.735 31 136.735L31 134.735C26.9286 134.735 23.8115 133.596 21.5316 131.413L20.1484 132.858ZM31 136.735C35.4628 136.735 39.1403 135.475 41.9239 132.865L40.5561 131.406C38.2197 133.596 35.0705 134.735 31 134.735L31 136.735ZM41.9316 132.858C44.663 130.242 46 126.794 46 122.615L44 122.615C44 126.33 42.8303 129.228 40.5484 131.413L41.9316 132.858ZM46 122.615C46 117.558 43.6233 113.208 39.0612 109.592L37.8188 111.159C42.0033 114.476 44 118.286 44 122.615L46 122.615ZM39.186 111.041L49.826 99.1212L48.334 97.7894L37.694 109.709L39.186 111.041ZM48.4726 99.2497C51.9641 101.92 54.6344 105.306 56.4881 109.426L58.3119 108.605C56.3256 104.191 53.4493 100.538 49.6874 97.6609L48.4726 99.2497ZM56.4881 109.426C58.3413 113.544 59.28 118.254 59.28 123.575L61.28 123.575C61.28 118.017 60.2987 113.02 58.3119 108.605L56.4881 109.426ZM24.92 30.4309L25.6891 31.0701L25.6944 31.0636L24.92 30.4309ZM53.8 31.2309L54.5799 30.605L54.5752 30.5993L53.8 31.2309ZM59 76.7509L59 77.7509L60 77.7509L60 76.7509L59 76.7509ZM3 76.7509L2 76.7509L2 77.7509L3 77.7509L3 76.7509ZM3 58.1909L3 57.1909L2 57.1909L2 58.1909L3 58.1909ZM20.2 58.1909L20.2 59.1909L21.2 59.1909L21.2 58.1909L20.2 58.1909ZM44.04 45.5509L44.7626 44.8597L44.755 44.8517L44.7471 44.8438L44.04 45.5509ZM33.4 58.1909L32.4 58.1909L32.4 59.1909L33.4 59.1909L33.4 58.1909ZM45.8 58.1909L45.8 59.1909L46.8 59.1909L46.8 58.1909L45.8 58.1909ZM2.99999 19.6309L1.99999 19.6309L1.99999 20.6309L2.99999 20.6309L2.99999 19.6309ZM2.99999 1.07092L2.99999 0.0709219L1.99999 0.0709219L1.99999 1.07092L2.99999 1.07092ZM59 1.07092L60 1.07092L60 0.0709194L59 0.0709194L59 1.07092ZM59 19.6309L59 20.6309L60 20.6309L60 19.6309L59 19.6309ZM21.2 46.5909C21.2 39.7415 22.7433 34.615 25.6891 31.0701L24.1509 29.7918C20.8033 33.8202 19.2 39.467 19.2 46.5909L21.2 46.5909ZM25.6944 31.0636C28.5525 27.565 32.8202 25.7509 38.68 25.7509L38.68 23.7509C32.3798 23.7509 27.4742 25.7236 24.1456 29.7983L25.6944 31.0636ZM38.68 25.7509C44.9987 25.7509 49.7292 27.8181 53.0248 31.8626L54.5752 30.5993C50.8308 26.0038 45.4813 23.7509 38.68 23.7509L38.68 25.7509ZM53.0201 31.8568C56.3007 35.945 58 41.6175 58 48.9909L60 48.9909C60 41.3243 58.2326 35.1568 54.5799 30.6051L53.0201 31.8568ZM58 48.9909L58 76.7509L60 76.7509L60 48.9909L58 48.9909ZM59 75.7509L3 75.7509L3 77.7509L59 77.7509L59 75.7509ZM4 76.7509L4 58.1909L2 58.1909L2 76.7509L4 76.7509ZM3 59.1909L20.2 59.1909L20.2 57.1909L3 57.1909L3 59.1909ZM21.2 58.1909L21.2 46.5909L19.2 46.5909L19.2 58.1909L21.2 58.1909ZM46.8 50.2709C46.8 48.1299 46.1377 46.2973 44.7626 44.8597L43.3174 46.2422C44.2889 47.2579 44.8 48.5719 44.8 50.2709L46.8 50.2709ZM44.7471 44.8438C43.2916 43.3884 41.3338 42.7109 39 42.7109L39 44.7109C40.9328 44.7109 42.335 45.2602 43.3329 46.2581L44.7471 44.8438ZM39 42.7109C36.9342 42.7109 35.2161 43.3233 34.0394 44.7017C32.8887 46.0497 32.4 47.9654 32.4 50.2709L34.4 50.2709C34.4 48.2031 34.8447 46.8388 35.5606 46.0002C36.2506 45.1919 37.3325 44.7109 39 44.7109L39 42.7109ZM32.4 50.2709L32.4 58.1909L34.4 58.1909L34.4 50.2709L32.4 50.2709ZM33.4 59.1909L45.8 59.1909L45.8 57.1909L33.4 57.1909L33.4 59.1909ZM46.8 58.1909L46.8 50.2709L44.8 50.2709L44.8 58.1909L46.8 58.1909ZM3.99999 19.6309L3.99999 1.07092L1.99999 1.07092L1.99999 19.6309L3.99999 19.6309ZM2.99999 2.07092L59 2.07092L59 0.0709194L2.99999 0.0709219L2.99999 2.07092ZM58 1.07092L58 19.6309L60 19.6309L60 1.07092L58 1.07092ZM59 18.6309L2.99999 18.6309L2.99999 20.6309L59 20.6309L59 18.6309Z" fill="#D2D2D2"/>
</svg>
