<?xml version="1.0" encoding="utf-8"?>
<svg width="25" height="25" version="1.1" xmlns="http://www.w3.org/2000/svg" xmlns:xlink="http://www.w3.org/1999/xlink" x="0px" y="0px" viewBox="0 0 256 256" enable-background="new 0 0 256 256" xml:space="preserve">
<metadata> Svg Vector Icons : http://www.onlinewebfonts.com/icon </metadata>
<g><g><path fill="#FF453A" d="M242,220.2h-27.8v26.5c0,2.1-1.8,3.8-4,3.8h-10.4c-2.2,0-4-1.7-4-3.8v-26.5h-27.8c-2.2,0-4-1.7-4-3.8v-9.9c0-2.1,1.8-3.8,4-3.8h27.8v-26.5c0-2.1,1.8-3.8,4-3.8h10.4c2.2,0,4,1.7,4,3.8v26.5H242c2.2,0,4,1.7,4,3.8v9.9C246,218.5,244.2,220.2,242,220.2z M154.7,140.6c10.2,3.2,19.8,7.8,28.5,13.5c2,1.3,3.2,3.5,3.2,5.9c0,3.9-3.3,7.1-7.3,7.1c-1.6,0-3.1-0.5-4.3-1.4l0,0c-15.4-10.1-33.9-16.1-53.8-16.1c-53.2,0-96.3,42.2-96.3,94.1c-0.3,3.7-3.5,6.6-7.3,6.6c-3.9,0-7-2.9-7.3-6.6c0,0,0-0.6,0-0.6c0.3-48.1,32.6-88.8,77.2-102.7C63.7,128.7,47.7,104.7,47.7,77c0-39.5,32.8-71.5,73.2-71.5c40.5,0,73.3,32,73.3,71.6C194.2,104.7,178.1,128.7,154.7,140.6z M120.9,19.8c-32.4,0-58.6,25.7-58.6,57.3c0,31.6,26.2,57.3,58.6,57.3c32.4,0,58.6-25.6,58.6-57.3C179.5,45.4,153.3,19.8,120.9,19.8z"/></g></g>
</svg>