<svg width="9" height="9" viewBox="0 0 9 9" fill="none" xmlns="http://www.w3.org/2000/svg">
<path fill-rule="evenodd" clip-rule="evenodd" d="M7.12501 1.18945C7.03497 1.18945 6.94581 1.20719 6.86262 1.24165C6.77943 1.2761 6.70384 1.32661 6.64017 1.39028L1.64809 6.38236L1.28447 7.71566L2.61776 7.35203L7.60984 2.35995C7.67351 2.29628 7.72402 2.22069 7.75848 2.1375C7.79293 2.05432 7.81067 1.96516 7.81067 1.87511C7.81067 1.78507 7.79293 1.69591 7.75848 1.61272C7.72402 1.52953 7.67351 1.45395 7.60984 1.39028C7.54617 1.32661 7.47059 1.2761 7.3874 1.24165C7.30421 1.20719 7.21505 1.18945 7.12501 1.18945ZM6.57561 0.548736C6.74979 0.476587 6.93648 0.439453 7.12501 0.439453C7.31354 0.439453 7.50023 0.476588 7.67441 0.548736C7.84859 0.620885 8.00686 0.726635 8.14017 0.859948C8.27349 0.993261 8.37924 1.15153 8.45139 1.32571C8.52354 1.49989 8.56067 1.68658 8.56067 1.87511C8.56067 2.06365 8.52354 2.25033 8.45139 2.42452C8.37924 2.5987 8.27349 2.75697 8.14017 2.89028L3.07767 7.95278C3.03153 7.99892 2.97414 8.03223 2.91118 8.0494L0.848678 8.6119C0.718848 8.64731 0.58 8.61044 0.484844 8.51528C0.389687 8.42012 0.352814 8.28127 0.388222 8.15144L0.950722 6.08894C0.967893 6.02598 1.0012 5.96859 1.04734 5.92245L6.10984 0.859948C6.24316 0.726635 6.40142 0.620885 6.57561 0.548736Z" fill="white"/>
</svg>
